<svg xmlns="http://www.w3.org/2000/svg" style="display: none;">
    <symbol id="icon-arrow" viewBox="0 0 20 18">
        <path fill-rule="evenodd" clip-rule="evenodd" d="M10.3908 0.85385C10.9795 0.26512 11.9341 0.26512 12.5228 0.853851L19.558 7.88903C19.8407 8.17175 19.9995 8.55519 19.9995 8.95502C19.9995 9.35484 19.8407 9.73829 19.558 10.021L12.0203 17.5587C11.4315 18.1474 10.477 18.1474 9.88829 17.5587C9.29956 16.97 9.29956 16.0154 9.88829 15.4267L14.8525 10.4626L1.50705 10.4626C0.674459 10.4626 -0.000488401 9.78761 -0.000488281 8.95502C-0.000488161 8.12243 0.674459 7.44748 1.50705 7.44748L14.8525 7.44748L10.3908 2.98583C9.80208 2.3971 9.80208 1.44258 10.3908 0.85385Z"/>
    </symbol>
</svg>
