<svg xmlns="http://www.w3.org/2000/svg" style="display: none;">
    <symbol id="icon-magnifier" viewBox="0 0 20 18">
        <path d="M17.6 16.3L14.6 13.3C14.5 13.2 14.4 13.1 14.3 13.1C15.3 11.7 16 10 16 8.1C16 3.6 12.4 0 8 0C3.6 0 0 3.6 0 8.1C0 12.6 3.6 16.2 8 16.2C9.9 16.2 11.6 15.5 13 14.4C13 14.5 13.1 14.6 13.2 14.7L16.2 17.7C16.4 17.9 16.7 18 16.9 18C17.1 18 17.4 17.9 17.6 17.7C18 17.3 18 16.7 17.6 16.3ZM8 14.2C4.7 14.2 2 11.5 2 8.1C2 4.7 4.7 2 8 2C11.3 2 14 4.7 14 8.1C14 11.5 11.3 14.2 8 14.2Z" />
    </symbol>
</svg>
